<?xml version="1.0" encoding="UTF-8" standalone="no"?>
<!DOCTYPE svg PUBLIC "-//W3C//DTD SVG 1.1//EN" "http://www.w3.org/Graphics/SVG/1.1/DTD/svg11.dtd">
<svg width="100%" height="100%" viewBox="0 0 507 355" version="1.1" xmlns="http://www.w3.org/2000/svg" xmlns:xlink="http://www.w3.org/1999/xlink" xml:space="preserve" xmlns:serif="http://www.serif.com/" style="fill-rule:evenodd;clip-rule:evenodd;stroke-linejoin:round;stroke-miterlimit:2;">
    <g>
        <path d="M495.609,55.329C489.788,33.55 472.638,16.4 450.859,10.579C411.379,0 253.092,0 253.092,0C253.092,0 94.804,0 55.325,10.579C33.55,16.4 16.396,33.55 10.575,55.329C0,94.804 0,177.167 0,177.167C0,177.167 0,259.529 10.575,299C16.396,320.779 33.55,337.934 55.325,343.754C94.804,354.329 253.092,354.329 253.092,354.329C253.092,354.329 411.379,354.329 450.859,343.754C472.638,337.934 489.788,320.779 495.609,299C506.188,259.529 506.188,177.167 506.188,177.167C506.188,177.167 506.188,94.804 495.609,55.329ZM202.471,253.096L333.979,177.167L202.471,101.238L202.471,253.096Z"/>
    </g>
</svg>
