<?xml version="1.0" encoding="UTF-8"?>
<svg preserveAspectRatio="xMidYMid slice" xmlns="http://www.w3.org/2000/svg" width="350px" height="350px" version="1.1" viewBox="0 0 1200 1200">
  <path d="m1102.6 316.5c-2.1016 8.3984-3.4492 15-5.5508 22.199h0.003906c-0.87891 2.7383-2.9883 4.9023-5.7031 5.8516-17.996 5.0195-35.102 12.816-50.699 23.098-5.3242 3.4531-9.5039 8.4141-12 14.25-3.3906 7.7266-9.7812 13.738-17.699 16.652-9.3984 4.3477-17.973 10.285-25.352 17.551-6.5977 6.2344-14.207 11.305-22.5 15-22.156 8.5664-42.773 20.672-61.047 35.848-11.035 7.9883-19.066 19.453-22.801 32.551-1.3633 3.6406-4.3672 6.4219-8.1016 7.5-6.7969 1.1836-13.75 1.1836-20.551 0-4.5547-1.25-9.3906-1.0234-13.812 0.64844-4.418 1.6719-8.1953 4.6992-10.785 8.6523-9.9609 11.484-16.555 25.5-19.051 40.5-0.6875 6.0586-0.074219 12.195 1.8008 18 0.38281 3.2383 0.38281 6.5117 0 9.75 1.8008 2.1016 4.8008 5.1016 7.6484 8.25 2.8516 3.1484 8.8516 9.6016 13.051 15 1.3711 1.4531 2.4844 3.125 3.3008 4.9492 3.4531 8.5586 9.3477 15.914 16.949 21.148 13.223 10.297 24.414 22.961 33 37.352v1.0508c-1.2852 2.3672-1.4258 5.1953-0.37109 7.6758 1.0508 2.4805 3.1758 4.3516 5.7695 5.0742-0.89844 1.1992-1.8008 3.3008-2.3984 3.1484-4.0742-0.50391-8.0625-1.5625-11.852-3.1484-7.8516-5.0742-16.91-7.9727-26.25-8.4023-3.5859-0.28125-7.1445-0.83203-10.648-1.6484-0.9375-0.22266-1.9141-0.22266-2.8516 0-6 1.6484-12.148 3-18 5.25-3.4102 1.4922-6.5898 3.4609-9.4492 5.8516-1.9492 1.3516-3.3008 3.3008-5.25 4.8008-10.801 8.25-13.5 8.25-23.398-1.3516-7.0273-6.332-16.195-9.7656-25.652-9.6016-10.34-0.52344-20.707-0.52344-31.047 0-7.8555 0.57812-15.168 4.2227-20.359 10.141-5.1914 5.9219-7.8477 13.648-7.3906 21.512v9.6016-0.003906c0.89844 9.2461-2.5391 18.387-9.3008 24.75-1.0859 0.89453-1.8711 2.0977-2.25 3.4492-1.5 8.5508-6.4492 9.75-14.102 8.25-3.9023-0.9375-7.9922-0.74219-11.793 0.55859-3.7969 1.3008-7.1484 3.6562-9.6562 6.793-6.0742 7.7227-15.234 12.383-25.051 12.75-3.75 0.34766-7.4062 1.3633-10.801 3-9.3008 4.5-18.301 9.6016-27.602 13.801h0.003906c-8.3125 3.9805-16.824 7.5352-25.5 10.648-3.1875 0.90625-6.5625 0.90625-9.75 0-5.6133-1.9023-11.801 0.26172-15 5.25-1.5664 1.8672-3.8633 2.9609-6.3008 3-12.449 0-25.051-1.5-37.5-2.5508-17.02-0.83984-33.836 3.957-47.852 13.652-5.6094 3.8008-10.969 7.9609-16.047 12.449-4.1797 4.6094-6.6172 10.539-6.8906 16.754-0.27344 6.2188 1.6328 12.336 5.3906 17.297 1.7695 1.8398 3.4258 3.7969 4.9492 5.8477 0.32422 1.7852 0.32422 3.6172 0 5.4023-1.793 0.21484-3.6055 0.21484-5.4023 0-3.1367-1.293-6.4062-2.25-9.75-2.8516-8.6992 0-17.398 0-27.148 1.0508 6-7.1992 0-12.148-2.3984-18-3.4727-10.641-10.059-19.992-18.902-26.852-2.3555-2.0938-5.2773-3.4531-8.3984-3.8984-7.9492 0-16.051 0.89844-24 1.5h-6.4492c-6.6328-0.55078-13.238 1.3164-18.602 5.25-1.9922 1.2578-4.2539 2.0273-6.6016 2.25-3.4922 1.0273-7.0508 1.832-10.648 2.3984-2.0781 0.44922-4.2227 0.44922-6.3008 0-11.551-3.6016-23.25-7.1992-34.648-11.25-3.3203-1.3008-6.4062-3.1211-9.1523-5.3984-8.3828-6.5039-18.301-10.742-28.797-12.301-5.3984-0.89844-10.199-4.1992-16.5-2.3984-2.3984 0.75-6.1484-3-9.1484-4.9492-5.3984-3.75-9-10.352-16.648-10.801-1.0508 0-1.9492-2.25-3.1484-3.3008s-3.6016-4.0508-5.3984-4.1992c-6.3008 0-6.8984-3.4492-7.0508-9h-0.007812c-0.71875-6.1758-1.8711-12.289-3.4492-18.301 0-3.4492-1.5-6.8984-2.1016-10.5-1.1992-7.1992-7.0508-9.4492-12.75-10.801-3.2109-0.72656-5.918-2.8789-7.3477-5.8477-2.0547-3.7852-4.6875-7.2266-7.8008-10.203-3.8984-3.4492-5.1016-6.1484-1.5-10.5 1.5469-1.5195 2.4219-3.6016 2.4219-5.7734s-0.875-4.2539-2.4219-5.7734c-2.8086-2.5234-4.7578-5.8633-5.5664-9.5508-0.80469-3.6875-0.43359-7.5352 1.0664-11 0.78516-3.4219 0.41797-7.0117-1.0508-10.199-4.1992-8.25-8.8516-16.051-13.648-23.852-3.5938-9.0586-3.5938-19.145 0-28.199 1.5664-1.375 3.7852-1.7266 5.6992-0.90234 3.0703 1.8984 5.9375 4.1094 8.5508 6.6016 5.7812 5.3164 11.84 10.32 18.148 15 5.6094 4.0898 12.297 6.4414 19.23 6.7617 6.9336 0.32031 13.809-1.4062 19.77-4.9609 14.203-6.7578 25.305-18.66 31.051-33.301 3.0742-7.0742 7.3359-13.566 12.602-19.199 4.6484-5.5508 7.1992-12 15.898-7.8008 5.6992-3.75 12.602-4.5 18.75-7.8008 6.75-4.5273 15.168-5.793 22.949-3.4492 1.4102 0.76953 2.9258 1.3242 4.5 1.6484 19.406 4.0156 38.074 10.996 55.352 20.703 6.3438 3.1562 13.859 2.8711 19.949-0.75 6.75-4.1992 13.352-8.6992 19.949-13.199v-0.003906c1.6367-1.1562 2.8906-2.7734 3.6016-4.6484 7.8672-19.398 12.379-39.992 13.348-60.898 1.0039-8.2109-1.0781-16.496-5.8477-23.25-0.90234-1.707-1.3164-3.625-1.1992-5.5508 0-6.1484-0.75-12.148-1.3516-19.5 3.9375 1.3828 7.793 2.9883 11.551 4.8008 7.1992 3.8984 13.949 8.6992 21.148 12.301v-0.003906c4.25 1.4062 8.6172 2.4102 13.051 3 2.6719 0.55078 5.2812 1.3555 7.8008 2.4023 8.4922 4.2773 18.508 4.2773 27 0 3.6914-1.2812 7.707-1.2812 11.398 0 10.043 3.8008 20.922 4.8359 31.5 3 2.1719-0.51953 4.457-0.25391 6.4492 0.75 7.9844 3.3008 16.562 4.9375 25.203 4.8008 7.6484 1.3516 15 1.6484 23.25 2.3984 9.9062 1.7812 19.934 2.8359 30 3.1484 18.504 0.57422 37.012-0.88672 55.199-4.3477 13.949-3.4492 28.5-4.5 42.75-7.0508 11.902-2.1758 23.27-6.6602 33.449-13.199 13.062-10.672 29.664-16.027 46.5-15 19.051 2.3984 36.449-6.75 54.449-11.398v-0.003906c18.559-5.875 36.496-13.562 53.551-22.949 8.1016-3.6992 16.051-7.75 23.852-12.148 3.0312-1.8789 5.7617-4.207 8.0977-6.9023 6.3008-7.0508 12.301-15 18.602-21.449 0-0.75 2.8516 0 4.3516 0 5.3984 0 10.801 1.3516 16.352 1.8008h-0.003906c1.5781 0.21484 3.1719-0.28125 4.3516-1.3516 6.4492-6.3008 15-5.8516 23.102-8.5508l-0.003906 0.003906c5.4219-2.4883 10.473-5.7188 15-9.6016 5.8516-3.75 9.4492-9.6016 15-13.051 6.0078-2.6602 12.297-4.625 18.75-5.8477 3.5195-1.168 6.7773-3 9.6016-5.4023 3.8906-3.1406 8.8047-4.7422 13.801-4.5 7.8008 0 17.551 0 21.898-9.1484 0-0.89844 2.1016-1.6484 3.1484-2.1016l12-4.3516z" fill="#093b3e" fill-rule="evenodd"></path>
</svg>
