<?xml version="1.0" encoding="UTF-8"?>
<svg preserveAspectRatio="xMidYMid slice" xmlns="http://www.w3.org/2000/svg" width="250px" height="250px" version="1.1" viewBox="0 0 1200 1200">
  <path d="m1137.5 250c-0.027344-23.199-9.2578-45.438-25.66-61.84s-38.641-25.633-61.84-25.66h-900c-23.199 0.027344-45.438 9.2578-61.84 25.66s-25.633 38.641-25.66 61.84v700c0.027344 23.199 9.2578 45.438 25.66 61.84s38.641 25.633 61.84 25.66h900c23.199-0.027344 45.438-9.2578 61.84-25.66s25.633-38.641 25.66-61.84zm-987.5-12.5h900c6.8984 0.011719 12.488 5.6016 12.5 12.5v6.2383l-424.93 318.71c-10.859 8.0469-24.016 12.395-37.531 12.402-13.512 0.011719-26.672-4.3203-37.543-12.352l-425-318.76v-6.2383c0.011719-6.8984 5.6016-12.488 12.5-12.5zm900 725h-900c-6.8984-0.011719-12.488-5.6016-12.5-12.5v-599.99l380.05 285.05c23.883 17.641 52.797 27.156 82.488 27.148 29.695-0.007812 58.602-9.543 82.477-27.199l379.98-285v599.99c-0.011719 6.8984-5.6016 12.488-12.5 12.5z" fill="#f1f1f1"></path>
</svg>
