<?xml version="1.0" encoding="UTF-8"?>
<svg width="1200pt" height="1200pt" version="1.1" viewBox="0 0 1200 1200" xmlns="http://www.w3.org/2000/svg">
 <path d="m600 675c13.398 0 25.777-7.1484 32.477-18.75 6.6992-11.602 6.6992-25.898 0-37.5-6.6992-11.602-19.078-18.75-32.477-18.75-59.672 0-116.9-23.707-159.1-65.902-42.195-42.195-65.902-99.426-65.902-159.1s23.707-116.9 65.902-159.1c42.195-42.195 99.426-65.902 159.1-65.902s116.9 23.707 159.1 65.902c42.195 42.195 65.902 99.426 65.902 159.1v75c0 13.398-7.1484 25.777-18.75 32.477-11.602 6.6992-25.898 6.6992-37.5 0-11.602-6.6992-18.75-19.078-18.75-32.477v-75c0-39.781-15.805-77.938-43.934-106.07s-66.285-43.934-106.07-43.934-77.938 15.805-106.07 43.934-43.934 66.285-43.934 106.07 15.805 77.938 43.934 106.07 66.285 43.934 106.07 43.934c30.754-0.10547 60.734-9.6641 85.875-27.375 14.684 30.926 42.652 53.484 75.988 61.289 33.332 7.8008 68.406 0 95.293-21.195 26.883-21.199 42.652-53.484 42.844-87.719v-75c0-79.566-31.605-155.87-87.867-212.13-56.262-56.262-132.57-87.867-212.13-87.867s-155.87 31.605-212.13 87.867c-56.262 56.262-87.867 132.57-87.867 212.13s31.605 155.87 87.867 212.13c56.262 56.262 132.57 87.867 212.13 87.867zm0-225c-19.891 0-38.969-7.9023-53.031-21.969-14.066-14.062-21.969-33.141-21.969-53.031s7.9023-38.969 21.969-53.031c14.062-14.066 33.141-21.969 53.031-21.969s38.969 7.9023 53.031 21.969c14.066 14.062 21.969 33.141 21.969 53.031s-7.9023 38.969-21.969 53.031c-14.062 14.066-33.141 21.969-53.031 21.969zm525 75v487.5c0 29.836-11.852 58.453-32.949 79.551-21.098 21.098-49.715 32.949-79.551 32.949h-825c-29.836 0-58.453-11.852-79.551-32.949-21.098-21.098-32.949-49.715-32.949-79.551v-487.5c0.027344-11.605 5.4297-22.547 14.625-29.625l135.38-104.25v96.375l-51 37.5 426 327.75 426-327.75-51-37.5v-96.375l135.38 104.25c9.1953 7.0781 14.598 18.02 14.625 29.625z" fill="#191716"/>
</svg>
