<?xml version="1.0" encoding="UTF-8"?>
<svg preserveAspectRatio="xMidYMid slice" xmlns="http://www.w3.org/2000/svg" width="250px" height="250px" version="1.1" viewBox="0 0 1200 1200">
  <g fill="#f1f1f1">
    <path d="m212.5 975c0 106.69 194.92 162.5 387.5 162.5s387.5-55.809 387.5-162.5c0-33.812-19.922-81.934-114.84-119.04-12.477-4.8555-26.59-2.6953-37.043 5.668s-15.656 21.664-13.656 34.898c2 13.238 10.898 24.406 23.355 29.305 49.316 19.262 67.188 39.965 67.188 49.172 0 26.172-106.3 87.5-312.5 87.5s-312.5-61.328-312.5-87.5c0-17.254 53.406-56.945 174.1-76.195 33.184 46.082 82.672 77.797 138.4 88.695 134.91 0 362.5-383.42 362.5-562.5 0-96.141-38.191-188.34-106.17-256.33-67.984-67.98-160.19-106.17-256.33-106.17s-188.34 38.191-256.33 106.17c-67.98 67.984-106.17 160.19-106.17 256.33 0 105.11 78.516 280.21 170.55 407.26-123.46 26.723-195.55 78.207-195.55 142.74zm387.5-837.5c76.223 0.085938 149.3 30.402 203.2 84.301 53.898 53.898 84.215 126.98 84.301 203.2 0 170.92-217.72 487.5-287.5 487.5-20.75 0-54.676-28.387-91.969-72.219-2.1055-3.5312-4.7891-6.6914-7.9336-9.3438-86.496-105.47-187.6-289.45-187.6-405.94 0.085938-76.223 30.402-149.3 84.301-203.2 53.898-53.898 126.98-84.215 203.2-84.301z"></path>
    <path d="m725 425c0 69.035-55.965 125-125 125s-125-55.965-125-125 55.965-125 125-125 125 55.965 125 125"></path>
  </g>
</svg>
