<?xml version="1.0" encoding="UTF-8"?>
<svg preserveAspectRatio="xMidYMid slice" xmlns="http://www.w3.org/2000/svg" width="250px" height="250px" version="1.1" viewBox="0 0 1200 1200">
  <g fill="#f1f1f1">
    <path d="m649.07 137.5c108.81 2.6484 212.43 47.055 289.39 124.02s121.38 180.58 124.03 289.39c0.23828 9.7852 4.2891 19.086 11.293 25.922 7 6.8398 16.398 10.668 26.184 10.676h0.92969-0.003906c9.9453-0.24609 19.383-4.4297 26.246-11.629 6.8633-7.1992 10.586-16.832 10.352-26.773-3.1406-128.06-55.41-250.01-145.99-340.59-90.578-90.582-212.52-142.86-340.59-146-10-0.45703-19.758 3.1875-27.012 10.09-7.2539 6.9062-11.375 16.469-11.414 26.484-0.24219 9.9414 3.4727 19.578 10.332 26.785 6.8555 7.2031 16.297 11.391 26.242 11.641z"></path>
    <path d="m649.1 337.5c56.168 1.3633 109.66 24.285 149.39 64.012 39.727 39.73 62.648 93.223 64.012 149.39 0.23828 9.7852 4.2891 19.086 11.293 25.926 7 6.8359 16.398 10.664 26.184 10.672h0.92969-0.003906c9.9453-0.24609 19.383-4.4297 26.246-11.629 6.8633-7.1992 10.586-16.832 10.352-26.773-1.8477-75.43-32.633-147.26-85.988-200.61-53.352-53.355-125.18-84.141-200.61-85.988h-0.92969 0.003906c-13.289 0.011719-25.578 7.0508-32.309 18.508-6.7344 11.457-6.8984 25.621-0.4375 37.23 6.4609 11.613 18.582 18.941 31.867 19.262z"></path>
    <path d="m253.76 955.1c103.41 91.922 227.35 157.72 361.42 191.89 12.113 1.7422 24.336 2.5898 36.574 2.5391 103.43-6.3516 203.84-37.324 292.87-90.332 62.672-38.426 92.188-73.777 92.848-111.23-2.8984-34.562-12.648-68.199-28.688-98.949-16.035-30.75-38.039-57.996-64.723-80.152-21.891-23.797-48.363-42.926-77.832-56.234-29.469-13.305-61.324-20.52-93.652-21.207-17.039 1.293-62.328 4.7852-164.28 143.21v-0.003906c-1.8555 2.5078-4.4375 4.3828-7.3906 5.3789-2.957 0.99219-6.1445 1.0625-9.1367 0.19141-56.988-7.5469-109.65-34.449-149.17-76.199-42.266-40.176-69.465-93.641-77.051-151.46-0.63672-2.9844-0.41406-6.0898 0.64062-8.9531 1.0547-2.8672 2.8945-5.375 5.3164-7.2344 137.96-104.81 141.53-152.61 142.7-168.34-0.95312-33.574-8.5703-66.625-22.402-97.234-13.836-30.609-33.613-58.16-58.188-81.062-42.738-51.184-103.84-83.578-170.19-90.234l-2.293 0.023437c-44.871 0.80469-86.012 43.113-133.38 137.13v0.003906c-44.82 90.352-66.473 190.43-63.012 291.23 32.988 135.66 97.773 261.53 189.02 367.21zm-59.012-624.71c44.41-88.207 68.336-95.852 67.773-95.875v0.003907c46.094 6.1602 87.945 30.121 116.6 66.75 34.496 31.418 56.008 74.602 60.305 121.07-1.2188 8.7656-23.949 46.434-113.3 114.33h-0.003906c-13.84 10.578-24.371 24.891-30.352 41.254-5.9805 16.359-7.1641 34.09-3.4102 51.102 10.477 71.766 44.684 137.96 97.168 188.01 50.723 52.543 117.48 86.719 189.77 97.145 16.695 3.332 33.996 1.8008 49.844-4.4141 15.852-6.2148 29.582-16.852 39.559-30.645 64.723-87.891 101.1-111.28 109.84-112.94v0.003906c43.824 4.2422 84.496 24.652 114.09 57.25 37.531 30.891 62.41 74.488 69.922 122.51-0.050781 0.17188-4.2969 16.941-57.105 49.316-65.504 40.16-199.1 89.379-279.27 77.562-118.15-31.676-227.43-90.117-319.38-170.8-79.484-94.387-136.83-205.37-167.82-324.81-1.25-85.535 17.871-170.14 55.785-246.83z"></path>
  </g>
</svg>
