<?xml version="1.0" encoding="UTF-8" standalone="no"?>
<svg xmlns="http://www.w3.org/2000/svg" xmlns:xlink="http://www.w3.org/1999/xlink" xmlns:serif="http://www.serif.com/" width="100%" height="100%" viewBox="0 0 512 512" version="1.1" xml:space="preserve" style="fill-rule:evenodd;clip-rule:evenodd;stroke-linejoin:round;stroke-miterlimit:2;">
    <g transform="matrix(0.1,0,0,-0.1,0,512)">
        <path d="M2678,3308C2673,1266 2679,1428 2594,1255C2519,1102 2406,989 2255,914C2128,852 2059,836 1915,836C1775,836 1704,852 1585,910C1434,985 1312,1106 1240,1255C1182,1376 1166,1445 1166,1585C1165,1730 1181,1797 1247,1930C1286,2010 1307,2039 1384,2115C1483,2214 1574,2269 1705,2310C1801,2340 1960,2347 2060,2326C2101,2317 2141,2310 2148,2310C2157,2310 2160,2401 2160,2729L2160,3149L2113,3157C2086,3161 1993,3164 1905,3164C1648,3163 1445,3117 1223,3010C345,2588 47,1519 582,712C675,572 875,371 1010,281C1428,4 1931,-68 2410,82C2839,216 3222,567 3395,983C3439,1091 3473,1210 3496,1335C3512,1427 3513,1513 3511,2438C3509,2989 3511,3440 3515,3440C3519,3440 3539,3427 3559,3411C3671,3322 3899,3201 4072,3136C4267,3064 4543,3010 4720,3010L4810,3010L4808,3423L4805,3835L4708,3841C4402,3861 4123,3989 3894,4215C3670,4435 3539,4717 3514,5033L3507,5120L2682,5120L2678,3308Z" style="fill:rgb(184,193,194);fill-rule:nonzero;"></path>
    </g>
</svg>
