<?xml version="1.0" encoding="UTF-8" standalone="no"?>
<svg preserveAspectRatio="xMidYMid slice" width="100px" height="101px" xmlns="http://www.w3.org/2000/svg" xmlns:xlink="http://www.w3.org/1999/xlink" xmlns:serif="http://www.serif.com/"   viewBox="0 0 360 362" version="1.1" xml:space="preserve" style="fill-rule:evenodd;clip-rule:evenodd;stroke-linejoin:round;stroke-miterlimit:2;">
    <g transform="matrix(1.02006,0,0,1.02573,-19.1491,-9.31351)">
        <circle cx="195.233" cy="185.54" r="176.46" style="fill:rgb(37,211,102);"></circle>
    </g>
    <g transform="matrix(0.59342,0,0,0.59342,71.8518,74.4869)">
        <clipPath id="_clip1">
            <rect x="-4.604" y="0" width="364.604" height="364.78"></rect>
        </clipPath>
        <g clip-path="url(#_clip1)">
            <path d="M307.546,52.566C273.709,18.685 228.706,0.017 180.756,0C81.951,0 1.538,80.404 1.504,179.235C1.487,210.829 9.746,241.667 25.432,268.844L0,361.736L95.024,336.811C121.203,351.096 150.683,358.616 180.679,358.625L180.756,358.625C279.544,358.625 359.966,278.212 360,179.381C360.017,131.483 341.392,86.455 307.546,52.574L307.546,52.566ZM180.756,328.354L180.696,328.354C153.966,328.346 127.744,321.16 104.865,307.589L99.424,304.358L43.034,319.149L58.083,264.168L54.542,258.53C39.63,234.809 31.749,207.391 31.766,179.244C31.801,97.104 98.633,30.271 180.817,30.271C220.61,30.288 258.015,45.801 286.145,73.967C314.276,102.123 329.755,139.562 329.738,179.364C329.703,261.513 262.871,328.346 180.756,328.346L180.756,328.354ZM262.475,216.777C257.997,214.534 235.978,203.704 231.869,202.209C227.761,200.713 224.779,199.966 221.796,204.452C218.814,208.939 210.228,219.029 207.615,222.011C205.002,225.002 202.389,225.372 197.911,223.128C193.434,220.885 179.003,216.158 161.891,200.902C148.578,189.024 139.587,174.362 136.975,169.875C134.362,165.389 136.7,162.965 138.934,160.739C140.945,158.728 143.412,155.505 145.655,152.892C147.899,150.279 148.638,148.406 150.133,145.423C151.629,142.432 150.881,139.82 149.764,137.576C148.646,135.333 139.691,113.287 135.952,104.323C132.316,95.591 128.621,96.777 125.879,96.631C123.266,96.502 120.284,96.476 117.293,96.476C114.302,96.476 109.454,97.594 105.346,102.08C101.238,106.566 89.669,117.404 89.669,139.441C89.669,161.478 105.716,182.785 107.959,185.776C110.202,188.767 139.544,234.001 184.469,253.408C195.153,258.023 203.498,260.782 210.004,262.845C220.731,266.257 230.494,265.776 238.212,264.624C246.816,263.335 264.71,253.786 268.44,243.326C272.17,232.866 272.17,223.893 271.053,222.028C269.936,220.163 266.945,219.037 262.467,216.794L262.475,216.777Z" style="fill:white;"></path>
        </g>
    </g>
</svg>
